<svg width="24" height="24" viewBox="0 0 24 24" fill="none" xmlns="http://www.w3.org/2000/svg">
<mask id="path-1-outside-1_328_21352" maskUnits="userSpaceOnUse" x="1.78784" y="1" width="20" height="19" fill="black">
<rect fill="white" x="1.78784" y="1" width="20" height="19"/>
<path fill-rule="evenodd" clip-rule="evenodd" d="M17.5109 9.12773V9.12788V13.6208C17.5109 13.8253 17.5802 14.0239 17.7075 14.184L19.0138 15.8263C19.4854 16.4191 19.0632 17.2942 18.3057 17.2942H5.6943C4.93683 17.2942 4.51469 16.4191 4.98621 15.8263L6.29254 14.1839C6.41989 14.0238 6.48922 13.8253 6.48922 13.6207V9.12788V9.12773C6.48922 5.74348 8.9565 3 12 3C15.0436 3 17.5109 5.74348 17.5109 9.12773Z"/>
</mask>
<path fill-rule="evenodd" clip-rule="evenodd" d="M17.5109 9.12773V9.12788V13.6208C17.5109 13.8253 17.5802 14.0239 17.7075 14.184L19.0138 15.8263C19.4854 16.4191 19.0632 17.2942 18.3057 17.2942H5.6943C4.93683 17.2942 4.51469 16.4191 4.98621 15.8263L6.29254 14.1839C6.41989 14.0238 6.48922 13.8253 6.48922 13.6207V9.12788V9.12773C6.48922 5.74348 8.9565 3 12 3C15.0436 3 17.5109 5.74348 17.5109 9.12773Z" fill="#CED7E4"/>
<path d="M4.98621 15.8263L3.42098 14.5813L4.98621 15.8263ZM19.0138 15.8263L17.4486 17.0713L19.0138 15.8263ZM17.7075 14.184L19.2728 12.939L17.7075 14.184ZM19.5109 9.12788V9.12773H15.5109V9.12788H19.5109ZM19.5109 13.6208V9.12788H15.5109V13.6208H19.5109ZM16.1423 15.429L17.4486 17.0713L20.5791 14.5813L19.2728 12.939L16.1423 15.429ZM18.3057 15.2942H5.6943V19.2942H18.3057V15.2942ZM6.55145 17.0713L7.85778 15.4289L4.72731 12.9389L3.42098 14.5813L6.55145 17.0713ZM4.48922 9.12788V13.6207H8.48922V9.12788H4.48922ZM4.48922 9.12773V9.12788H8.48922V9.12773H4.48922ZM12 1C7.6576 1 4.48922 4.84381 4.48922 9.12773H8.48922C8.48922 6.64315 10.2554 5 12 5V1ZM19.5109 9.12773C19.5109 4.84381 16.3425 1 12 1V5C13.7447 5 15.5109 6.64314 15.5109 9.12773H19.5109ZM7.85778 15.4289C8.26663 14.9149 8.48922 14.2775 8.48922 13.6207H4.48922C4.48922 13.3731 4.57315 13.1327 4.72731 12.9389L7.85778 15.4289ZM5.6943 15.2942C6.61123 15.2942 7.12225 16.3537 6.55145 17.0713L3.42098 14.5813C1.90713 16.4845 3.26243 19.2942 5.6943 19.2942V15.2942ZM17.4486 17.0713C16.8778 16.3537 17.3888 15.2942 18.3057 15.2942V19.2942C20.7376 19.2942 22.0929 16.4845 20.5791 14.5813L17.4486 17.0713ZM15.5109 13.6208C15.5109 14.2776 15.7335 14.915 16.1423 15.429L19.2728 12.939C19.4269 13.1328 19.5109 13.3731 19.5109 13.6208H15.5109Z" fill="#CED7E4" mask="url(#path-1-outside-1_328_21352)"/>
<path d="M12 23C13.6569 23 15 21.6569 15 20H9C9 21.6569 10.3431 23 12 23Z" fill="#CED7E4"/>
<circle cx="18" cy="4" r="3" fill="#FC1F15"/>
</svg>
