<svg width="24" height="24" viewBox="0 0 24 24" fill="none" xmlns="http://www.w3.org/2000/svg">
<path fill-rule="evenodd" clip-rule="evenodd" d="M12.0316 4C12.5839 4.00072 13.031 4.44903 13.0303 5.00131L13.012 19.0013C13.0112 19.5536 12.5629 20.0007 12.0107 20C11.4584 19.9993 11.0112 19.551 11.012 18.9987L11.0303 4.99869C11.031 4.44641 11.4793 3.99928 12.0316 4Z" fill="white"/>
<path fill-rule="evenodd" clip-rule="evenodd" d="M4 12C4 11.4477 4.44772 11 5 11H19C19.5523 11 20 11.4477 20 12C20 12.5523 19.5523 13 19 13H5C4.44772 13 4 12.5523 4 12Z" fill="white"/>
</svg>
