<svg width="30" height="30" viewBox="0 0 30 30" fill="none" xmlns="http://www.w3.org/2000/svg">
<mask id="path-1-inside-1_420_22648" fill="white">
<path fill-rule="evenodd" clip-rule="evenodd" d="M17.2581 5.10842C15.0296 4.72308 12.9106 6.21732 12.5252 8.4459L12.0017 11.4734L20.0721 12.8688L20.5956 9.84134C20.981 7.61276 19.4867 5.49375 17.2581 5.10842ZM10.5076 8.09704L9.98414 11.1245L7.96661 10.7756C6.85232 10.583 5.79281 11.3301 5.60014 12.4444L4.03027 21.5236C3.8376 22.6379 4.58472 23.6974 5.69901 23.8901L21.8398 26.6809C22.9541 26.8736 24.0136 26.1265 24.2063 25.0122L25.7761 15.933C25.9688 14.8187 25.2217 13.7592 24.1074 13.5665L22.0897 13.2177L22.6132 10.1902C23.1912 6.84733 20.9498 3.66882 17.607 3.09082C14.2642 2.51281 11.0856 4.75416 10.5076 8.09704ZM16.1741 17.3897C16.2704 16.8325 15.8969 16.3028 15.3397 16.2064C14.7826 16.1101 14.2528 16.4836 14.1565 17.0408L13.6332 20.0672C13.5368 20.6243 13.9104 21.1541 14.4676 21.2504C15.0247 21.3468 15.5545 20.9732 15.6508 20.4161L16.1741 17.3897Z"/>
</mask>
<path fill-rule="evenodd" clip-rule="evenodd" d="M17.2581 5.10842C15.0296 4.72308 12.9106 6.21732 12.5252 8.4459L12.0017 11.4734L20.0721 12.8688L20.5956 9.84134C20.981 7.61276 19.4867 5.49375 17.2581 5.10842ZM10.5076 8.09704L9.98414 11.1245L7.96661 10.7756C6.85232 10.583 5.79281 11.3301 5.60014 12.4444L4.03027 21.5236C3.8376 22.6379 4.58472 23.6974 5.69901 23.8901L21.8398 26.6809C22.9541 26.8736 24.0136 26.1265 24.2063 25.0122L25.7761 15.933C25.9688 14.8187 25.2217 13.7592 24.1074 13.5665L22.0897 13.2177L22.6132 10.1902C23.1912 6.84733 20.9498 3.66882 17.607 3.09082C14.2642 2.51281 11.0856 4.75416 10.5076 8.09704ZM16.1741 17.3897C16.2704 16.8325 15.8969 16.3028 15.3397 16.2064C14.7826 16.1101 14.2528 16.4836 14.1565 17.0408L13.6332 20.0672C13.5368 20.6243 13.9104 21.1541 14.4676 21.2504C15.0247 21.3468 15.5545 20.9732 15.6508 20.4161L16.1741 17.3897Z" fill="url(#paint0_radial_420_22648)"/>
<path d="M12.5252 8.4459L12.8822 8.50763L12.8822 8.50763L12.5252 8.4459ZM17.2581 5.10842L17.1964 5.46541L17.1964 5.46541L17.2581 5.10842ZM12.0017 11.4734L11.6447 11.4116L11.583 11.7686L11.94 11.8303L12.0017 11.4734ZM20.0721 12.8688L20.0104 13.2258L20.3674 13.2875L20.4291 12.9305L20.0721 12.8688ZM20.5956 9.84134L20.2386 9.77961L20.2386 9.77961L20.5956 9.84134ZM9.98414 11.1245L9.92241 11.4815L10.2794 11.5432L10.3411 11.1862L9.98414 11.1245ZM10.5076 8.09704L10.8646 8.15877L10.8646 8.15877L10.5076 8.09704ZM7.96661 10.7756L8.02833 10.4187L8.02833 10.4187L7.96661 10.7756ZM5.60014 12.4444L5.24315 12.3827L5.24315 12.3827L5.60014 12.4444ZM4.03027 21.5236L4.38727 21.5853L4.38727 21.5853L4.03027 21.5236ZM5.69901 23.8901L5.63729 24.247L5.63729 24.247L5.69901 23.8901ZM21.8398 26.6809L21.9015 26.3239L21.9015 26.3239L21.8398 26.6809ZM24.2063 25.0122L23.8493 24.9505L23.8493 24.9505L24.2063 25.0122ZM25.7761 15.933L25.4192 15.8713L25.4192 15.8713L25.7761 15.933ZM24.1074 13.5665L24.1691 13.2095L24.1691 13.2095L24.1074 13.5665ZM22.0897 13.2177L21.7327 13.1559L21.671 13.5129L22.028 13.5747L22.0897 13.2177ZM22.6132 10.1902L22.2562 10.1285L22.2562 10.1285L22.6132 10.1902ZM17.607 3.09082L17.6687 2.73382L17.607 3.09082ZM15.3397 16.2064L15.4014 15.8494L15.4014 15.8494L15.3397 16.2064ZM16.1741 17.3897L15.8171 17.3279L15.8171 17.3279L16.1741 17.3897ZM14.1565 17.0408L14.5135 17.1025L14.5135 17.1025L14.1565 17.0408ZM13.6332 20.0672L13.9902 20.1289L13.9902 20.1289L13.6332 20.0672ZM15.6508 20.4161L15.2938 20.3543L15.2938 20.3543L15.6508 20.4161ZM12.8822 8.50763C13.2335 6.47621 15.165 5.11417 17.1964 5.46541L17.3199 4.75142C14.8941 4.332 12.5876 5.95843 12.1682 8.38417L12.8822 8.50763ZM12.3587 11.5351L12.8822 8.50763L12.1682 8.38417L11.6447 11.4116L12.3587 11.5351ZM20.1339 12.5118L12.0635 11.1164L11.94 11.8303L20.0104 13.2258L20.1339 12.5118ZM20.2386 9.77961L19.7151 12.8071L20.4291 12.9305L20.9526 9.90307L20.2386 9.77961ZM17.1964 5.46541C19.2278 5.81666 20.5899 7.7482 20.2386 9.77961L20.9526 9.90307C21.372 7.47733 19.7456 5.17085 17.3199 4.75142L17.1964 5.46541ZM10.3411 11.1862L10.8646 8.15877L10.1506 8.03531L9.62714 11.0628L10.3411 11.1862ZM7.90488 11.1326L9.92241 11.4815L10.0459 10.7675L8.02833 10.4187L7.90488 11.1326ZM5.95714 12.5061C6.11572 11.589 6.98775 10.9741 7.90488 11.1326L8.02833 10.4187C6.71688 10.1919 5.46991 11.0712 5.24315 12.3827L5.95714 12.5061ZM4.38727 21.5853L5.95714 12.5061L5.24315 12.3827L3.67328 21.4619L4.38727 21.5853ZM5.76074 23.5331C4.84361 23.3745 4.22869 22.5024 4.38727 21.5853L3.67328 21.4619C3.44652 22.7733 4.32583 24.0203 5.63729 24.247L5.76074 23.5331ZM21.9015 26.3239L5.76074 23.5331L5.63729 24.247L21.7781 27.0379L21.9015 26.3239ZM23.8493 24.9505C23.6907 25.8676 22.8187 26.4825 21.9015 26.3239L21.7781 27.0379C23.0895 27.2647 24.3365 26.3854 24.5633 25.0739L23.8493 24.9505ZM25.4192 15.8713L23.8493 24.9505L24.5633 25.0739L26.1331 15.9947L25.4192 15.8713ZM24.0457 13.9235C24.9628 14.0821 25.5777 14.9541 25.4192 15.8713L26.1331 15.9947C26.3599 14.6833 25.4806 13.4363 24.1691 13.2095L24.0457 13.9235ZM22.028 13.5747L24.0457 13.9235L24.1691 13.2095L22.1515 12.8607L22.028 13.5747ZM22.2562 10.1285L21.7327 13.1559L22.4467 13.2794L22.9702 10.2519L22.2562 10.1285ZM17.5453 3.44781C20.6909 3.99173 22.8001 6.98276 22.2562 10.1285L22.9702 10.2519C23.5823 6.71189 21.2087 3.34592 17.6687 2.73382L17.5453 3.44781ZM10.8646 8.15877C11.4085 5.01305 14.3996 2.9039 17.5453 3.44781L17.6687 2.73382C14.1287 2.12173 10.7627 4.49527 10.1506 8.03531L10.8646 8.15877ZM15.278 16.5634C15.638 16.6257 15.8793 16.9679 15.8171 17.3279L16.5311 17.4514C16.6615 16.6971 16.1557 15.9799 15.4014 15.8494L15.278 16.5634ZM14.5135 17.1025C14.5757 16.7425 14.918 16.5012 15.278 16.5634L15.4014 15.8494C14.6471 15.719 13.9299 16.2248 13.7995 16.9791L14.5135 17.1025ZM13.9902 20.1289L14.5135 17.1025L13.7995 16.9791L13.2762 20.0055L13.9902 20.1289ZM14.5293 20.8934C14.1693 20.8312 13.9279 20.4889 13.9902 20.1289L13.2762 20.0055C13.1458 20.7598 13.6515 21.477 14.4058 21.6074L14.5293 20.8934ZM15.2938 20.3543C15.2315 20.7143 14.8893 20.9557 14.5293 20.8934L14.4058 21.6074C15.1601 21.7378 15.8774 21.2321 16.0078 20.4778L15.2938 20.3543ZM15.8171 17.3279L15.2938 20.3543L16.0078 20.4778L16.5311 17.4514L15.8171 17.3279Z" fill="#EBF0F8" mask="url(#path-1-inside-1_420_22648)"/>
<defs>
<radialGradient id="paint0_radial_420_22648" cx="0" cy="0" r="1" gradientUnits="userSpaceOnUse" gradientTransform="translate(5.82773 4.93937) rotate(50.5955) scale(27.1584 20.5421)">
<stop stop-color="#30CF8C"/>
<stop offset="1" stop-color="#92CDD0"/>
</radialGradient>
</defs>
</svg>
