<svg width="30" height="30" viewBox="0 0 30 30" fill="none" xmlns="http://www.w3.org/2000/svg">
<rect x="7.80258" y="2.20007" width="17.5617" height="23.5364" rx="1.9926" transform="rotate(6.34858 7.80258 2.20007)" fill="url(#paint0_radial_420_22649)" stroke="#EBF0F8" stroke-width="0.362291"/>
<g clip-path="url(#clip0_420_22649)">
<path d="M8.11883 20.325C8.10339 20.4638 8.20672 20.5893 8.34964 20.6052L20.2528 21.9295C20.3957 21.9454 20.5241 21.8458 20.5395 21.707L20.5729 21.4068C20.5889 21.317 20.6513 20.8669 20.4092 20.3346C20.2566 19.999 20.0145 19.6969 19.6896 19.4365C19.2966 19.1215 18.7803 18.8675 18.1428 18.6783C18.138 18.6771 17.6628 18.5595 17.1827 18.3783C16.3466 18.0628 16.293 17.8599 16.2927 17.8579C16.2898 17.8381 16.2845 17.8188 16.277 17.8004C16.274 17.7634 16.2718 17.6249 16.3458 17.2626C16.5336 16.3427 17.0933 15.8489 17.5429 15.4521C17.6848 15.327 17.8187 15.2088 17.9249 15.0901C18.3832 14.5781 18.4903 13.9498 18.4963 13.9108C18.5052 13.8314 18.5033 13.7651 18.4905 13.7024C18.4651 13.5769 18.4003 13.4933 18.353 13.4323L18.3526 13.4319C18.3407 13.4165 18.3295 13.4019 18.3204 13.3887C18.317 13.3837 18.3078 13.3703 18.3243 13.3088C18.3852 13.0822 18.4277 12.8916 18.4583 12.7089C18.5128 12.3834 18.5814 11.8951 18.55 11.409C18.5486 11.3264 18.5402 11.2384 18.5238 11.1329C18.471 10.7947 18.3589 10.4981 18.1854 10.2443C18.1553 10.2032 17.4199 9.23284 15.0215 8.78369C14.6899 8.72159 14.3578 8.69822 14.0306 8.67865C13.9517 8.6738 13.8437 8.66718 13.7403 8.68204C13.4834 8.71893 13.3992 8.86978 13.3719 8.95641C13.3265 9.0999 13.3648 9.21969 13.3901 9.29898L13.3901 9.29899L13.3901 9.299C13.3938 9.31049 13.3983 9.3247 13.3839 9.35878C13.318 9.43948 13.221 9.50803 13.1227 9.57227C13.0942 9.59149 12.4296 10.0469 12.3203 10.7263C12.1726 11.2357 12.0893 12.0459 12.1334 12.6171C12.1362 12.6487 12.1402 12.6955 12.1219 12.7247C11.9962 12.8144 11.8537 12.9162 11.8245 13.1812C11.8229 13.208 11.7894 13.8445 12.1239 14.4447C12.2013 14.5837 12.3059 14.7283 12.4167 14.8815L12.417 14.8818L12.417 14.8818C12.7684 15.3677 13.2058 15.9724 13.1869 16.9111C13.1794 17.2808 13.1468 17.4154 13.1357 17.4509C13.1244 17.4672 13.115 17.4849 13.1078 17.5035C13.1071 17.5054 13.0106 17.691 12.1295 17.815C11.6212 17.8866 11.1275 17.8971 11.1128 17.8976C10.4687 17.934 9.91306 18.0638 9.46136 18.2834C9.08857 18.4646 8.78539 18.7066 8.56026 19.0027C8.20056 19.4758 8.1574 19.9383 8.15243 20.023L8.11883 20.325Z" fill="#F4F8FC" stroke="#F4F8FC" stroke-width="0.846292" stroke-linejoin="round"/>
</g>
<defs>
<radialGradient id="paint0_radial_420_22649" cx="0" cy="0" r="1" gradientUnits="userSpaceOnUse" gradientTransform="translate(9.1449 3.95472) rotate(56.179) scale(25.4591 18.1543)">
<stop stop-color="#30CF8C"/>
<stop offset="1" stop-color="#92CDD0"/>
</radialGradient>
<clipPath id="clip0_420_22649">
<rect width="15.7902" height="15.7902" fill="white" transform="translate(8.0188 6.33594) rotate(6.34858)"/>
</clipPath>
</defs>
</svg>
